<svg width="40" height="40" viewBox="0 0 40 40" fill="none" xmlns="http://www.w3.org/2000/svg">
<path d="M0 20C0 8.95431 8.95431 0 20 0C31.0457 0 40 8.95431 40 20C40 31.0457 31.0457 40 20 40C8.95431 40 0 31.0457 0 20Z" fill="white" fill-opacity="0.2"/>
<path d="M19.3807 9.51884C17.9157 10.8877 17 12.8369 17 15C17 19.1421 20.3579 22.5 24.5 22.5C26.6631 22.5 28.6123 21.5843 29.9811 20.1193C29.6613 25.3537 25.3149 29.5 20 29.5C14.4771 29.5 9.99999 25.0228 9.99999 19.5C9.99999 14.1851 14.1463 9.83867 19.3807 9.51884Z" fill="white"/>
</svg>
