<svg width="40" height="40" viewBox="0 0 40 40" fill="none" xmlns="http://www.w3.org/2000/svg">
<path d="M0 20C0 8.95431 8.95431 0 20 0C31.0457 0 40 8.95431 40 20C40 31.0457 31.0457 40 20 40C8.95431 40 0 31.0457 0 20Z" fill="#0D0D0D" fill-opacity="0.2"/>
<path d="M20 27C16.6863 27 14 24.3137 14 21C14 17.6863 16.6863 15 20 15C23.3137 15 26 17.6863 26 21C26 24.3137 23.3137 27 20 27ZM19 10H21V13H19V10ZM19 29H21V32H19V29ZM11.5147 13.9289L12.9289 12.5147L15.0503 14.636L13.636 16.0503L11.5147 13.9289ZM24.9497 27.364L26.364 25.9497L28.4853 28.0711L27.0711 29.4853L24.9497 27.364ZM27.0711 12.5147L28.4853 13.9289L26.364 16.0503L24.9497 14.636L27.0711 12.5147ZM13.636 25.9497L15.0503 27.364L12.9289 29.4853L11.5147 28.0711L13.636 25.9497ZM31 20V22H28V20H31ZM12 20V22H9V20H12Z" fill="white"/>
</svg>
